<svg width="220" height="220" viewBox="0 0 220 220" xmlns="http://www.w3.org/2000/svg" role="img" aria-label="Cloud mascot">
  <defs>
    <linearGradient id="g1" x1="0" y1="0" x2="1" y2="1">
      <stop offset="0%" stop-color="#7dd3fc"/>
      <stop offset="100%" stop-color="#a78bfa"/>
    </linearGradient>
  </defs>
  <circle cx="110" cy="110" r="90" fill="#10173b"/>
  <path d="M64 122c-11 0-20-9-20-20s8-19 19-20c4-17 19-28 36-28 16 0 30 9 35 24 2-1 5-2 8-2 13 0 24 11 24 24s-11 22-24 22H64z" fill="url(#g1)"/>
  <circle cx="94" cy="106" r="7" fill="#0f172a"/>
  <circle cx="127" cy="106" r="7" fill="#0f172a"/>
  <path d="M92 126c8 8 28 8 36 0" stroke="#0f172a" stroke-width="5" fill="none" stroke-linecap="round"/>
  <text x="110" y="172" text-anchor="middle" fill="#c7d2fe" font-family="Arial, sans-serif" font-size="16">vibe bot</text>
</svg>
